<svg id="ORNAMENT" xmlns="http://www.w3.org/2000/svg" viewBox="0 0 1600 1400"><defs><style>.cls-1{fill:#262424;}.cls-2{fill:#87bfc1;}.cls-3{fill:#dd9144;}.cls-4{fill:#fff;}.cls-5{fill:#de9244;}.cls-6{fill:#88c0c2;}</style></defs><title>Website Maintainence</title><path class="cls-1" d="M1414.06,744.9a2.5,2.5,0,0,1-2.5-2.5V735a2.5,2.5,0,0,1,5,0v7.4A2.5,2.5,0,0,1,1414.06,744.9Z"/><path class="cls-1" d="M1425.22,748.66h-7.4a2.5,2.5,0,0,1,0-5h7.4A2.5,2.5,0,0,1,1425.22,748.66Z"/><path class="cls-1" d="M1414.06,759.83a2.5,2.5,0,0,1-2.5-2.5v-7.4a2.5,2.5,0,0,1,5,0v7.4A2.5,2.5,0,0,1,1414.06,759.83Z"/><path class="cls-1" d="M1410.29,748.66h-7.4a2.5,2.5,0,0,1,0-5h7.4A2.5,2.5,0,0,1,1410.29,748.66Z"/><path class="cls-1" d="M875.5,345.71a2.5,2.5,0,0,1-2.5-2.5v-14a2.5,2.5,0,0,1,5,0v14A2.5,2.5,0,0,1,875.5,345.71Z"/><path class="cls-1" d="M896.69,352.85h-14a2.5,2.5,0,0,1,0-5h14A2.5,2.5,0,0,1,896.69,352.85Z"/><path class="cls-1" d="M875.5,374a2.5,2.5,0,0,1-2.5-2.5v-14a2.5,2.5,0,1,1,5,0v14A2.5,2.5,0,0,1,875.5,374Z"/><path class="cls-1" d="M868.36,352.85h-14a2.5,2.5,0,0,1,0-5h14A2.5,2.5,0,0,1,868.36,352.85Z"/><path class="cls-1" d="M471.77,590.34a2.5,2.5,0,0,1-2.5-2.5V576.26a2.5,2.5,0,0,1,5,0v11.58A2.5,2.5,0,0,1,471.77,590.34Z"/><path class="cls-1" d="M489.23,596.22H477.66a2.5,2.5,0,0,1,0-5h11.58A2.5,2.5,0,0,1,489.23,596.22Z"/><path class="cls-1" d="M471.77,613.68a2.5,2.5,0,0,1-2.5-2.5V599.61a2.5,2.5,0,0,1,5,0v11.58A2.5,2.5,0,0,1,471.77,613.68Z"/><path class="cls-1" d="M465.89,596.22H454.31a2.5,2.5,0,0,1,0-5h11.58A2.5,2.5,0,1,1,465.89,596.22Z"/><circle class="cls-2" cx="499.97" cy="224.03" r="8.61"/><circle class="cls-2" cx="1424.48" cy="510.76" r="18.2"/><circle class="cls-3" cx="1423.95" cy="1091.74" r="9.89"/><circle class="cls-3" cx="481.25" cy="950.21" r="7"/><rect class="cls-4" x="566.96" y="504.85" width="782.86" height="572.34" rx="12.21" ry="12.21"/><path class="cls-1" d="M1337.61,1079.54H579.17A14.57,14.57,0,0,1,564.61,1065V517.06a14.57,14.57,0,0,1,14.56-14.56h758.44a14.57,14.57,0,0,1,14.56,14.56V1065A14.57,14.57,0,0,1,1337.61,1079.54ZM579.17,507.2a9.87,9.87,0,0,0-9.86,9.86V1065a9.87,9.87,0,0,0,9.86,9.86h758.44a9.87,9.87,0,0,0,9.86-9.86V517.06a9.87,9.87,0,0,0-9.86-9.86H579.17Z"/><rect class="cls-5" x="1043.68" y="643.46" width="235.4" height="235.4" rx="10.46" ry="10.46"/><rect class="cls-6" x="658.17" y="600.46" width="321.41" height="321.41" rx="10.46" ry="10.46"/><line class="cls-4" x1="1060.87" y1="660.66" x2="1261.88" y2="861.66"/><path class="cls-4" d="M1261.88,864a2.34,2.34,0,0,1-1.66-.69l-201-201a2.35,2.35,0,0,1,3.32-3.32l201,201A2.35,2.35,0,0,1,1261.88,864Z"/><line class="cls-4" x1="1151.55" y1="770.99" x2="1060.87" y2="861.66"/><path class="cls-4" d="M1060.87,864a2.35,2.35,0,0,1-1.66-4l90.68-90.68a2.35,2.35,0,0,1,3.32,3.32l-90.68,90.68A2.34,2.34,0,0,1,1060.87,864Z"/><line class="cls-4" x1="1261.88" y1="660.66" x2="1168.77" y2="753.77"/><path class="cls-4" d="M1168.77,756.12a2.35,2.35,0,0,1-1.66-4L1260.22,659a2.35,2.35,0,0,1,3.32,3.32l-93.11,93.11A2.34,2.34,0,0,1,1168.77,756.12Z"/><rect class="cls-5" x="653.42" y="971.31" width="470.14" height="19.64" rx="9.82" ry="9.82"/><rect class="cls-5" x="653.42" y="1006.97" width="470.14" height="19.64" rx="9.82" ry="9.82"/><rect class="cls-6" x="1151.56" y="971.31" width="111.8" height="19.64" rx="9.82" ry="9.82"/><rect class="cls-6" x="1151.56" y="1006.97" width="111.8" height="19.64" rx="9.82" ry="9.82"/><rect class="cls-4" x="566.96" y="466.32" width="782.86" height="79.99" rx="12.83" ry="12.83"/><path class="cls-1" d="M1337,548.66H579.79a15.2,15.2,0,0,1-15.18-15.18V479.15A15.2,15.2,0,0,1,579.79,464H1337a15.2,15.2,0,0,1,15.18,15.18v54.32A15.2,15.2,0,0,1,1337,548.66Zm-757.19-80a10.5,10.5,0,0,0-10.49,10.49v54.32A10.5,10.5,0,0,0,579.79,544H1337a10.5,10.5,0,0,0,10.49-10.49V479.15A10.5,10.5,0,0,0,1337,468.67H579.79Z"/><circle class="cls-6" cx="624.99" cy="506.31" r="17.05"/><circle class="cls-6" cx="701.18" cy="506.31" r="17.05"/><circle class="cls-5" cx="777.37" cy="506.31" r="17.05"/><path class="cls-4" d="M945.07,737.36l-35.33-2.12a93.89,93.89,0,0,0-8.29-20l23.49-26.5a6.7,6.7,0,0,0-.28-9.18l-24.19-24.19a6.7,6.7,0,0,0-9.18-.28l-26.49,23.49a93.87,93.87,0,0,0-20-8.3L842.67,635a6.7,6.7,0,0,0-6.69-6.3H801.77a6.7,6.7,0,0,0-6.69,6.3L793,670.29a93.88,93.88,0,0,0-20,8.3L746.47,655.1a6.7,6.7,0,0,0-9.18.28l-24.19,24.19a6.7,6.7,0,0,0-.28,9.18l23.49,26.49a93.88,93.88,0,0,0-8.3,20l-35.33,2.12a6.7,6.7,0,0,0-6.3,6.69v34.21a6.7,6.7,0,0,0,6.3,6.69L728,787.08a93.88,93.88,0,0,0,8.29,20l-23.49,26.49a6.7,6.7,0,0,0,.28,9.18l24.19,24.19a6.7,6.7,0,0,0,9.18.28L773,843.73a93.89,93.89,0,0,0,20,8.3l2.12,35.32a6.7,6.7,0,0,0,6.69,6.3H836a6.7,6.7,0,0,0,6.69-6.3L844.8,852a93.86,93.86,0,0,0,20-8.3l26.49,23.49a6.7,6.7,0,0,0,9.18-.28l24.19-24.19a6.7,6.7,0,0,0,.28-9.18l-23.49-26.49a93.89,93.89,0,0,0,8.29-20L945.07,785a6.7,6.7,0,0,0,6.3-6.69V744.05A6.7,6.7,0,0,0,945.07,737.36ZM818.88,795.95a34.79,34.79,0,1,1,34.78-34.78A34.79,34.79,0,0,1,818.88,795.95Z"/><polygon class="cls-4" points="407.77 1026.81 421.07 1101.45 447.13 1099.17 440.13 1018.17 407.77 1026.81"/><path class="cls-1" d="M421.07,1104a2.5,2.5,0,0,1-2.46-2.06l-13.3-74.64a2.5,2.5,0,0,1,1.82-2.85l32.35-8.64a2.5,2.5,0,0,1,3.14,2.2l7,81a2.5,2.5,0,0,1-2.27,2.71l-26.05,2.28h-0.22Zm-10.43-75.32,12.5,70.13,21.29-1.87-6.53-75.54Z"/><path class="cls-5" d="M520.53,1170.84a13.09,13.09,0,0,0-3.07-4.47c-13.2-12.72-44.5-45.36-58.2-80.71l-42.51-.87s-13.83,53.74-12.79,99l114.58,1.52,2.42-5.44A12.83,12.83,0,0,0,520.53,1170.84Z"/><path class="cls-4" d="M520.53,1170.84l-116.44-1.49c-0.18,4.86-.24,9.69-0.13,14.44l114.58,1.52,2.42-5.44A12.83,12.83,0,0,0,520.53,1170.84Z"/><path class="cls-1" d="M518.54,1187.81h-0.08l-114.58-1.52a2.5,2.5,0,0,1-2.42-2.44c-0.11-4.63-.06-9.54.13-14.59a2.5,2.5,0,0,1,2.5-2.41h0l116.44,1.49a2.5,2.5,0,0,1,2.27,1.52,15.4,15.4,0,0,1,.51,10.78l-2.42,5.44A2.5,2.5,0,0,1,518.54,1187.81Zm-112.12-6.44,110.33,1.39,1.84-3.65a10.21,10.21,0,0,0,.17-5.78l-112.24-1.43C406.41,1175.13,406.38,1178.3,406.42,1181.37Z"/><path class="cls-6" d="M451.77,1026a397.66,397.66,0,0,1-53.67,10.94c-9.63-29.61-28.33-88.2-30.8-104.39-3.37-22,5.59-76.65,5.59-76.65S298.67,679.43,302,631.7s38.17-113.09,86.49-104.09a49.92,49.92,0,0,1,7.64,1.74c34.8,12.48,38.62,159.91,42.62,297.27,0.56,19.29,1.13,38.38,1.78,56.87C442.59,940.71,445.47,992.18,451.77,1026Z"/><path class="cls-1" d="M411,1009.5a2.5,2.5,0,0,1-2.43-1.91l-17-69.49a65.93,65.93,0,0,1-1.86-17.38L391.26,862a60.86,60.86,0,0,0-2-17.17L339.68,657.38a2.5,2.5,0,1,1,4.83-1.28l49.58,187.47a65.85,65.85,0,0,1,2.17,18.58l-1.54,58.71a60.92,60.92,0,0,0,1.72,16.06l17,69.49A2.5,2.5,0,0,1,411,1009.5Z"/><path class="cls-4" d="M440.56,883.49c-13.53-.25-24.43-12.91-24.43-28.49,0-14.89,10-27.11,22.65-28.38C439.34,845.91,439.91,865,440.56,883.49Z"/><path class="cls-5" d="M450.45,1038.48L391.2,1041a7.67,7.67,0,0,1-8.2-7l-1.71-35.63a7.55,7.55,0,0,1,7.5-7.65L448,988.19a7.67,7.67,0,0,1,8.2,7l1.71,35.63A7.55,7.55,0,0,1,450.45,1038.48Z"/><polygon class="cls-4" points="199.58 1020.18 199.87 1095.85 226.38 1097.49 233.51 1016.5 199.58 1020.18"/><path class="cls-1" d="M226.38,1100h-0.16l-26.51-1.65a2.5,2.5,0,0,1-2.34-2.49l-0.28-75.67a2.5,2.5,0,0,1,2.23-2.5l33.93-3.68a2.5,2.5,0,0,1,2.76,2.71l-7.14,81A2.5,2.5,0,0,1,226.38,1100Zm-24-6.5,21.74,1.35,6.66-75.53-28.67,3.11Z"/><path class="cls-5" d="M297.29,1170.84a13.08,13.08,0,0,0-3.11-4.47c-13.4-12.72-45.18-45.36-59.09-80.71l-43.17-.87s-14,53.74-13,99l116.34,1.52,2.45-5.44A12.65,12.65,0,0,0,297.29,1170.84Z"/><path class="cls-4" d="M297.29,1170.84l-118.23-1.49c-0.19,4.86-.24,9.69-0.13,14.44l116.34,1.52,2.45-5.44A12.65,12.65,0,0,0,297.29,1170.84Z"/><path class="cls-1" d="M295.27,1187.81H295.2l-116.34-1.52a2.5,2.5,0,0,1-2.42-2.44c-0.11-4.63-.06-9.54.13-14.59a2.53,2.53,0,0,1,2.53-2.4l118.23,1.49a2.5,2.5,0,0,1,2.26,1.5,15.22,15.22,0,0,1,.52,10.81l-2.46,5.44A2.5,2.5,0,0,1,295.27,1187.81Zm-113.88-6.45,112.09,1.39,1.87-3.66a10,10,0,0,0,.17-5.77l-114-1.44C181.39,1175.13,181.36,1178.3,181.39,1181.36Z"/><path class="cls-6" d="M358.08,632.2l-19,29.14s-26.28,80.17-51,171.92c-4.9,18.15-9.73,36.76-14.29,55.29-12.57,51.09-23,101.59-26.88,140.37a414.85,414.85,0,0,1-55.71-2.45c-1.07-30.93-2.82-92-.66-108.28,2.92-22,27.17-72.65,27.17-72.65s-22.82-188.42-6-233.69S281.13,511.91,326,532.32q3.66,1.66,7,3.54C368.74,555.92,379.62,599.15,358.08,632.2Z"/><path class="cls-1" d="M235.71,667.74a2.5,2.5,0,0,1-.55-4.94l6.74-1.52a23.38,23.38,0,0,0,17.38-16.47l9.13-32.33a2.5,2.5,0,0,1,4.81,1.36l-9.13,32.33a28.38,28.38,0,0,1-21.1,20l-6.74,1.52A2.51,2.51,0,0,1,235.71,667.74Z"/><path class="cls-1" d="M213,999a2.5,2.5,0,0,1-2.5-2.5V934.67A145.68,145.68,0,0,1,218,888.41l7.21-21.57a140.71,140.71,0,0,0,7.27-44.68V679.5a146.22,146.22,0,0,1,3.16-30.19l9.9-46.82a2.5,2.5,0,0,1,4.89,1l-9.9,46.82a141.22,141.22,0,0,0-3,29.15V822.16A145.68,145.68,0,0,1,230,868.43L222.77,890a140.7,140.7,0,0,0-7.27,44.68V996.5A2.5,2.5,0,0,1,213,999Z"/><path class="cls-1" d="M325.91,705.54a2.5,2.5,0,0,1-2.39-3.24c7.89-25.5,13.16-41.58,13.21-41.74A2.49,2.49,0,0,1,337,660l19-29.14a64.41,64.41,0,0,0,10.22-28.16,2.5,2.5,0,0,1,5,.56,69.36,69.36,0,0,1-11,30.33l-18.8,28.86c-0.77,2.35-5.81,17.83-13.08,41.35A2.5,2.5,0,0,1,325.91,705.54Z"/><path class="cls-4" d="M288.1,833.26c-4.9,18.15-9.73,36.76-14.29,55.29-0.56-.07-1.12-0.16-1.68-0.28-13.57-2.87-21.46-17.64-17.62-33s18-25.45,31.55-22.57C286.76,832.88,287.43,833.06,288.1,833.26Z"/><rect class="cls-5" x="183.51" y="986.33" width="76.18" height="50.33" rx="7.33" ry="7.33"/><path class="cls-4" d="M550.67,434.67S566.83,437.5,579,408l-36.67-19.33Z"/><path class="cls-1" d="M551.85,437.24a9.84,9.84,0,0,1-1.61-.11,2.5,2.5,0,0,1-2-2l-8.34-46a2.5,2.5,0,0,1,3.63-2.66l36.67,19.33a2.5,2.5,0,0,1,1.15,3.16C570.61,434.89,556.58,437.24,551.85,437.24Zm-6.14-44,7.06,38.95c4-.31,14.22-3.17,23-23.08Z"/><path class="cls-2" d="M553.87,279h89.75a2.87,2.87,0,0,1,2.87,2.87v128a2.88,2.88,0,0,1-2.88,2.88H553.88a2.88,2.88,0,0,1-2.88-2.88v-128a2.87,2.87,0,0,1,2.87-2.87Z" transform="translate(79.32 -110.55) rotate(11.29)"/><path class="cls-4" d="M648,302l-2.39,12-18.25,91.36a2.88,2.88,0,0,1-3.38,2.25l-72.18-14.41a2.88,2.88,0,0,1-2.26-3.38l18.24-91.36,2.4-12a2.88,2.88,0,0,1,3.38-2.25l72.18,14.41A2.88,2.88,0,0,1,648,302Z"/><path class="cls-1" d="M624.53,410.13a5.41,5.41,0,0,1-1.06-.11l-72.18-14.41a5.38,5.38,0,0,1-4.22-6.32l20.64-103.35a5.38,5.38,0,0,1,6.32-4.21l72.18,14.41a5.38,5.38,0,0,1,4.22,6.32L629.79,405.81A5.38,5.38,0,0,1,624.53,410.13ZM573,286.62a0.38,0.38,0,0,0-.21.06,0.36,0.36,0,0,0-.16.23l-2.4,12L552,390.27a0.36,0.36,0,0,0,.06.28,0.37,0.37,0,0,0,.24.16l72.18,14.41a0.38,0.38,0,0,0,.44-0.29l20.64-103.35h0a0.36,0.36,0,0,0-.06-0.28,0.37,0.37,0,0,0-.24-0.16l-72.18-14.41H573Z"/><path class="cls-4" d="M648,302l-2.39,12-77.83-15.54,2.4-12a2.88,2.88,0,0,1,3.38-2.25l72.18,14.41A2.88,2.88,0,0,1,648,302Z"/><path class="cls-1" d="M645.59,316.46a2.52,2.52,0,0,1-.49,0l-77.83-15.54a2.5,2.5,0,0,1-2-2.94l2.4-12a5.38,5.38,0,0,1,6.32-4.21l72.18,14.41a5.38,5.38,0,0,1,4.22,6.32l-2.39,12A2.5,2.5,0,0,1,645.59,316.46Zm-74.89-20L643.63,311l1.9-9.54h0a0.36,0.36,0,0,0-.06-0.28,0.37,0.37,0,0,0-.24-0.16l-72.18-14.41a0.36,0.36,0,0,0-.28.06,0.36,0.36,0,0,0-.16.23Z"/><path class="cls-4" d="M546.33,384s20.17,34.5,4.34,50.67c0,0-20.62,48.87-44,73a26.15,26.15,0,0,1-37.58-.23c-12.12-12.59-25.78-29.43-39-47.8-35.26-49.13-56.9-89.18-46.76-107.63,13.81-25.1,28.59-28.31,43.37-19.43L500,434.3,525,416s0.67-33,4.33-38.67,28-19.33,30-20,4.34,1.34,3,7.67S546.33,384,546.33,384Z"/><path class="cls-1" d="M488,518H488a28.61,28.61,0,0,1-20.72-8.85c-12.05-12.52-25.61-29.14-39.19-48.07-41.55-57.89-56.46-92.94-46.92-110.29,7.67-13.94,15.88-21.92,25.12-24.41,6.88-1.85,14.19-.49,21.73,4a2.5,2.5,0,0,1,.74.68l71.8,99.69,22-16.09c0.19-7.69,1.08-33.13,4.7-38.74,4.16-6.41,28.83-20.19,31.31-21a4.64,4.64,0,0,1,4.61.95c1.41,1.26,2.83,3.95,1.63,9.61-1.23,5.87-11.26,15.39-15.29,19,4,7.53,17.74,36.13,3.3,51.53-2.22,5.19-21.78,50.08-44.37,73.33A28.19,28.19,0,0,1,488,518ZM412.37,330.57a18.41,18.41,0,0,0-4.82.64c-7.74,2.09-15.16,9.49-22,22-8.38,15.26,6.86,49.59,46.6,105,13.45,18.74,26.84,35.17,38.73,47.52A23.65,23.65,0,0,0,488,513H488a23.23,23.23,0,0,0,16.81-7.09c22.82-23.5,43.32-71.73,43.53-72.22a2.51,2.51,0,0,1,.52-0.78c14.31-14.62-4.52-47.33-4.71-47.66a2.5,2.5,0,0,1,.52-3.15c5.43-4.69,14.35-13.62,15.19-17.62,0.64-3,.23-4.29,0-4.7-3.24,1.44-25.36,14.09-28.48,18.9-2.38,3.69-3.67,24.88-3.93,37.36a2.5,2.5,0,0,1-1,2l-25,18.3a2.5,2.5,0,0,1-3.5-.56L425,334.45C420.53,331.86,416.37,330.57,412.37,330.57Z"/><path class="cls-1" d="M488.25,481a2.5,2.5,0,0,1-2.42-3.14l11.72-44.2a2.5,2.5,0,0,1,4.83,1.28l-11.72,44.2A2.5,2.5,0,0,1,488.25,481Z"/><path class="cls-5" d="M408.52,311.41h0c-13.24-3.74-25.55,1.42-35.38,20.64C361.47,354.82,389.69,414.26,425,463.4l67.93-49.79C474.67,386.65,428.5,320.49,408.52,311.41Z"/><path class="cls-1" d="M422,455.66a2.5,2.5,0,0,1-1.49-4.51l60.69-45a2.5,2.5,0,1,1,3,4l-60.69,45A2.49,2.49,0,0,1,422,455.66Z"/><path class="cls-5" d="M329.82,282.79c31.84,0,86.47,32.43,86.47,32.43L418,336.16s14.31,39.53,14.31,54.43-25.41,49.08-25.41,49.08S425.05,556.74,432.35,614c0,0-86.18,54.92-240.42,5.26l54.92-182.81-12.27-119S287.56,282.79,329.82,282.79Z"/><path class="cls-1" d="M413.26,433.15a2.5,2.5,0,0,1-2.07-3.9c11.86-17.63,18.67-31.73,18.67-38.67,0-14.29-14-53.19-14.16-53.58a2.48,2.48,0,0,1-.14-0.64l-1-11.93a2.5,2.5,0,1,1,5-.42l1,11.6c1.45,4,14.35,40.35,14.35,55,0,10.29-10.62,28.23-19.52,41.46A2.5,2.5,0,0,1,413.26,433.15Z"/><path class="cls-1" d="M323.76,625.31c-13.53,0-26.4-.8-37.86-1.93a461.77,461.77,0,0,1-75.06-13.69,2.5,2.5,0,1,1,1.4-4.8,456.61,456.61,0,0,0,74.24,13.53c38.25,3.77,92.43,3.76,133.36-17.63a2.5,2.5,0,1,1,2.32,4.43C392.48,620.73,356.22,625.31,323.76,625.31Z"/><path class="cls-4" d="M327.68,271.11c17.88,1.17,28,13,29.21,22.79s-5.84,18.7-12.46,20.64c0,0-6.62-18.5-11.68-18.5S324,317.46,324,317.46s-24,0-30.38-20.45C289.16,282.91,306.84,269.75,327.68,271.11Z"/><path class="cls-1" d="M324,320c-0.26,0-25.87-.25-32.77-22.2-1.78-5.65-.56-11.56,3.43-16.64,6.66-8.48,19.69-13.39,33.19-12.5,18.68,1.22,30.19,13.78,31.53,25,1.31,10.9-6.46,21-14.24,23.34a2.5,2.5,0,0,1-3.06-1.56c-2.94-8.21-7.28-16.07-9.25-16.81-1.85,1.22-4.79,10.08-6.38,19.31A2.5,2.5,0,0,1,324,320Zm0.81-46.44c-10.77,0-21.06,4.13-26.21,10.69-2.08,2.65-4.22,6.89-2.6,12.05,4.75,15.11,20.29,18,25.93,18.57,1.93-10.19,5.31-21.29,10.83-21.29,5.32,0,10.22,10.15,13.12,17.67,4.67-2.65,9.47-9.35,8.55-17-1.1-9.2-10.9-19.54-26.89-20.59h0C326.6,273.54,325.69,273.52,324.79,273.52Z"/><path class="cls-4" d="M339.36,282.79s-0.62,6.14-8.27,9.06A29.35,29.35,0,0,1,310,282.79l2.13-38.86,7.27,1.53,17.7,3.71,1.87,28Z"/><path class="cls-1" d="M330.66,294.36a31.81,31.81,0,0,1-22.48-9.86,2.5,2.5,0,0,1-.67-1.85l2.13-38.86a2.5,2.5,0,0,1,3-2.31l25,5.24a2.5,2.5,0,0,1,2,2.28l2.25,33.62a2.49,2.49,0,0,1,0,.42c0,0.31-.88,7.71-9.87,11.14a2.5,2.5,0,0,1-.77.16h-0.55Zm-18.1-12.53a27,27,0,0,0,18,7.53c5.08-2.1,6.09-5.82,6.25-6.68l-2.1-31.45L314.48,247Z"/><path class="cls-1" d="M339,277.12C317.78,275,316,248,316,248a33.07,33.07,0,0,1,3.41-2.54l17.7,3.71Z"/><path class="cls-1" d="M286.38,154.31c13.36,4.63,3.91,32.41-.36,41.29s3.42,33.24-12.87,42.33,16.55,40.74-23.88,77c-31.15,27.94-88.11,10.92-81.83-18s51.08-44.34,56.5-70.83c3.45-16.86-4.81-40.56,22.32-50.67C266.53,167.92,275.83,150.66,286.38,154.31Z"/><path class="cls-4" d="M357.23,223.51S365,212,373.32,215.91s5.53,31.7-15,27.91Z"/><path class="cls-1" d="M362,246.67a22.73,22.73,0,0,1-4.13-.39,2.5,2.5,0,0,1-2-2.32l-1.11-20.3a2.5,2.5,0,0,1,.42-1.53c0.36-.54,9.07-13.25,19.23-8.47,5.92,2.78,7,12.5,4.63,19.91C376.88,240.21,371.35,246.67,362,246.67Zm-1.29-5.05c9.16,0.73,12.5-6.35,13.54-9.59,2-6.32.59-12.63-2-13.85-5.27-2.48-10.85,4-12.48,6.11Z"/><path class="cls-4" d="M299.44,170.72l-4.75-2.25a4.62,4.62,0,0,0-4.67.4,15.56,15.56,0,0,0-4.75,5.12,10.76,10.76,0,0,0-.64,7.27,4.57,4.57,0,0,0,2.06,2.86l5.1,3.18a4.64,4.64,0,0,0,6.79-2.29l3.2-8.47A4.64,4.64,0,0,0,299.44,170.72Z"/><path class="cls-4" d="M362.45,228.09c-0.94,17.19-8.58,37-29.37,36.46-15.28-.41-32.19-18.81-33.47-42s2.75-43.08,30.69-41.69a67.48,67.48,0,0,1,8.88,1.17c16.2,3.58,22.38,5,23.59,36.9C362.86,221.73,362.64,224.85,362.45,228.09Z"/><path class="cls-1" d="M333.94,267.07H333c-15.84-.43-34.48-18.76-35.9-44.39-0.68-12.35-.31-27.69,8.69-36.75,5.53-5.57,13.81-8.12,24.61-7.58a70.22,70.22,0,0,1,9.29,1.23c18,4,24.33,7,25.55,39.25,0.1,2.58-.06,5.3-0.24,8.19l-0.07,1.23C363.91,247.11,355.2,267.07,333.94,267.07Zm-6.4-83.8c-8.1,0-14.07,2-18.19,6.18-5.86,5.9-8.17,16.37-7.25,32.95,1.23,22.26,17.41,39.3,31,39.66,23.07,0.63,26.36-25.94,26.81-34.1h0L360,226.7c0.16-2.76.32-5.36,0.23-7.7-1.13-30-5.88-31.07-21.63-34.55a65.08,65.08,0,0,0-8.46-1.12Q328.82,183.27,327.54,183.27Z"/><path class="cls-4" d="M298.91,167l-4.7-2.23a4.58,4.58,0,0,0-4.63.4,15.42,15.42,0,0,0-4.7,5.08,10.66,10.66,0,0,0-.63,7.21,4.53,4.53,0,0,0,2,2.83l5.05,3.15a4.59,4.59,0,0,0,6.73-2.27l3.17-8.39A4.59,4.59,0,0,0,298.91,167Z"/><path class="cls-1" d="M306.35,220.57a16.49,16.49,0,0,0,10.42-13.27c0.3-2,.49-4.68,1.07-7.11,11.72,12.27,33.84,19.72,43.48,22.52a7.51,7.51,0,0,0,8.33-2.81c11.25-16.62-2.16-48.45-23.73-47.84-24.48-17-53.07-4.63-57.15,16C284.26,211,299.45,223.45,306.35,220.57Z"/><path class="cls-5" d="M329.62,154.75h0a45.62,45.62,0,0,1,45.62,45.62v4.54a3.33,3.33,0,0,1-3.33,3.33H287.33a3.33,3.33,0,0,1-3.33-3.33v-4.54A45.62,45.62,0,0,1,329.62,154.75Z"/><path class="cls-5" d="M343.67,208.25h47.67S368.83,179.83,343.67,208.25Z"/><path class="cls-1" d="M346.22,208.05a2.5,2.5,0,0,1-1.76-4.28c7.76-7.67,16.08-11.23,24.73-10.58a2.5,2.5,0,0,1-.38,5c-7.14-.54-14.15,2.54-20.84,9.15A2.49,2.49,0,0,1,346.22,208.05Z"/><path class="cls-1" d="M360,199.26a2.5,2.5,0,0,1-2.45-2C351,164.44,320.7,163,319.42,163a2.5,2.5,0,0,1-2.42-2.58,2.53,2.53,0,0,1,2.57-2.42c0.35,0,35.49,1.5,42.83,38.27a2.5,2.5,0,0,1-2,2.94A2.53,2.53,0,0,1,360,199.26Z"/><path class="cls-4" d="M306.74,223.51s-11.28-11.65-23.15-7.86-5,31.45,24.34,28Z"/><path class="cls-1" d="M303,246.43c-15.77,0-25-9.14-27-18.48-1.52-7,1.24-12.88,6.85-14.68,13.2-4.22,25.2,8,25.7,8.5a2.5,2.5,0,0,1-3.59,3.48c-0.15-.15-10.4-10.48-20.59-7.22-3.74,1.19-4.22,5.52-3.49,8.85,1.78,8.18,10.91,16.14,26.78,14.25a2.5,2.5,0,1,1,.59,5A44.34,44.34,0,0,1,303,246.43Z"/><path class="cls-4" d="M414.07,579.81c-0.39,5.44-6.95,5.24-9.82,3.06,0,0,2.08,6.45-10.55,14.21s-26.63,5.62-32.21-4.33-11.91-11-11.91-11S205.24,563.19,187.4,540.17c-8.32-10.73-7.39-51.63-.89-95.56,8.59-58,26.9-121.33,46.41-127.33,65-20,43.81,78.79,26.87,139.45-7.35,26.31-11.42,44.16-11.42,44.16l113.38,57.21s27.63-11.93,31.83-12.09S414.46,574.38,414.07,579.81Z"/><path class="cls-1" d="M378.55,604.2a24.69,24.69,0,0,1-6.6-.76,19.94,19.94,0,0,1-12.58-9.5c-4.67-8.34-9.66-9.67-10.19-9.8-7.07-.91-145.53-19-163.7-42.49-9.77-12.61-7.12-58.58-1.37-97.4,6.6-44.56,24.15-121.93,48.1-129.3,15.59-4.79,27.56-3.26,35.6,4.57,17.36,16.91,15.5,62-5.68,137.85-5.91,21.16-9.73,37-11,42.2l110.67,55.84c6.41-2.75,27.5-11.68,31.66-11.84,1.44,0,2.86.77,4.68,2.65,6.06,6.27,18.74,27.84,18.32,33.75h0a6.8,6.8,0,0,1-4,6,9.75,9.75,0,0,1-6,.46c-0.83,3.2-3.56,7.8-11.51,12.69A32.68,32.68,0,0,1,378.55,604.2ZM247.74,317.1a51.27,51.27,0,0,0-14.11,2.5c-8.1,2.49-17.24,17.63-25.72,42.62-7.61,22.43-14.54,52.59-19,82.75-6.92,46.81-6.76,84.47.41,93.72,13.63,17.58,111,34.29,160.57,40.66,0.39,0.06,7.65,1.38,13.72,12.22a14.94,14.94,0,0,0,9.57,7.18c5.9,1.53,12.92.17,19.26-3.73,10.52-6.47,9.5-11.44,9.49-11.49a2.25,2.25,0,0,1,.81-2.71,2.5,2.5,0,0,1,3,.13,5.4,5.4,0,0,0,4.74.64,2,2,0,0,0,1.19-1.94c0.3-4.4-14.09-28.9-18.25-31.19-3,.44-17.74,6.27-30.69,11.87a2.42,2.42,0,0,1-2.05-.06L247.27,503a2.42,2.42,0,0,1-1.27-2.7c0-.18,4.17-18.21,11.45-44.27,20.37-73,22.72-117.73,7-133.07C260.27,319,254.69,317,247.74,317.1ZM414.07,579.81h0Z"/><path class="cls-5" d="M262.84,455.13l-82.45-11.37c8.59-58,29-118.48,52.53-126.49C297.3,295.32,279.78,394.47,262.84,455.13Z"/><path class="cls-5" d="M262.88,457.56l-0.37,0-82.45-11.37a2.42,2.42,0,0,1-2.07-2.76c8.26-55.78,28.73-119.76,54.14-128.43,15.68-5.35,27.85-4.07,36.17,3.8,24.18,22.86,8.42,95.65-3.13,137A2.43,2.43,0,0,1,262.88,457.56ZM183.16,441.7l77.91,10.74c9.24-33.56,26.6-108.69,3.9-130.14-6.91-6.53-17.43-7.45-31.27-2.73C211.58,327.12,191.68,386.28,183.16,441.7Z"/><path class="cls-1" d="M266.48,444.05a2.43,2.43,0,0,1-2.39-3c8.79-34.58,20.79-95.76,2.48-117.06-4.94-5.74-11.7-8.1-20.68-7.21a2.42,2.42,0,0,1-.48-4.83c10.52-1,18.87,1.94,24.83,8.88,18.76,21.81,9.56,78.06-1.46,121.41A2.43,2.43,0,0,1,266.48,444.05Z"/><path class="cls-1" d="M259,438.45l-0.36,0L186,428.84a2.42,2.42,0,1,1,.63-4.81l72.66,9.59A2.43,2.43,0,0,1,259,438.45Z"/></svg>