<svg id="Layer_1" enable-background="new 0 0 512 512" height="512" viewBox="0 0 512 512" width="512" xmlns="http://www.w3.org/2000/svg"><g><g><g><g><g><g id="XMLID_1645_"><g id="XMLID_1694_"><g id="XMLID_1695_"><g id="XMLID_1696_"><g id="XMLID_1713_"><g id="XMLID_1714_"><g id="XMLID_1724_"><g id="XMLID_1725_"><g id="XMLID_1726_"><g id="XMLID_1727_"><g id="XMLID_1728_"><g id="XMLID_1729_"><g id="XMLID_1730_"><g id="XMLID_1731_"><g><path d="m512 256c0 64.97-24.2 124.28-64.09 169.43-17.06 19.32-150.36 27.967-191.91 27.967-42.42 0-174.85-8.647-191.91-27.967-39.89-45.15-64.09-104.46-64.09-169.43 0-141.38 114.62-256 256-256s256 114.62 256 256z" fill="#ffe45c"/></g></g></g></g></g></g></g></g></g></g></g></g></g></g></g></g></g></g></g><path d="m447.91 425.43c39.89-45.15 64.09-104.46 64.09-169.43 0-20.21-2.342-39.872-6.77-58.732l-74.985-74.985-14.757 6.204-67.999-67.763-289.385 157.294 78.108 77.643-31.397 21.247 136.236 136.236c5.725.17 10.773.253 14.949.253 41.55 0 174.85-8.647 191.91-27.967z" fill="#f9be06"/><g><path d="m138.36 483.43c-5.15-2.67-10.19-5.5-15.12-8.5-22.14-13.46-42.09-30.18-59.15-49.5v-24.54c0-25.4 20.59-45.99 46-45.99h13.49z" fill="#ffc397"/><path d="m447.91 400.89v24.54c-17.06 19.32-37.01 36.04-59.15 49.5-5.62 3.42-11.39 6.62-17.28 9.59l16.94-129.62h13.49c25.4 0 46 20.59 46 45.99z" fill="#ffc397"/><path d="m394.702 260.642 59.194-42.624-42.797-49.639 19.146-46.096-69.771-6.758h-208.948l-69.771 6.758 19.146 46.096-42.797 49.639 59.194 42.624-12.483 56.266 151.185-28.139 151.185 28.139z" fill="#3e28e0"/><path d="m394.7 260.64 12.49 56.27-151.19-28.14v-173.24h104.47l69.77 6.75-19.14 46.1 42.8 49.64z" fill="#1a0099"/><path d="m195.008 257.488h121.984v118.84h-121.984z" fill="#eaa678"/><path d="m256 257.491h60.992v118.84h-60.992z" fill="#d38c5b"/><g><path d="m342.293 354.898h-172.586l-7.043 86.998h187.242z" fill="#ffc397"/><path d="m342.293 354.898 7.613 87h-93.906v-87z" fill="#eaa678"/></g><path d="m354.905 135.109c-4.178-63.432-55.488-86.875-98.905-86.875s-94.727 23.442-98.905 86.875c-11.227 2.172-19.203 16.898-17.947 28.804l1.924 27.096c1.317 12.504 12.308 21.631 24.42 20.273l2.089-.226c8.189 60.545 63.721 73.569 88.419 77.469 24.698-3.9 63.607-10.846 88.418-77.469l2.089.226c12.112 1.358 23.103-7.769 24.42-20.273l1.924-27.096c1.256-11.906-6.719-26.632-17.946-28.804z" fill="#ffc397"/><g><path d="m223.192 288.524h-17.882c-32.75 0-59.299-26.549-59.299-59.299v-18.138l30 18.139c0 16.181 13.118 29.299 29.299 29.299h17.883v29.999z" fill="#fff"/></g><path d="m372.852 163.913-1.924 27.096c-1.317 12.504-12.308 21.631-24.42 20.273l-2.089-.226c-8.48 22.743-18.595 38.539-29.226 49.622-20.499 21.384-42.923 25.274-59.193 27.847v-240.291c43.417 0 94.727 23.442 98.905 86.875 11.227 2.172 19.202 16.898 17.947 28.804z" fill="#eaa678"/><path d="m316.992 58.059s-20.581-20.243-60.992-20.243-116.477 29.406-97.001 136.854c0 0 81.232-8.555 137.012-57.33 8.023 10.56 24.221 25.259 53.404 28.172 0 0 4.399-19.288 4.399-48.57 0-21.695-36.822-38.883-36.822-38.883z" fill="#3e28e0"/><path d="m353.81 96.94c0 29.28-4.4 48.57-4.4 48.57-29.18-2.91-45.38-17.61-53.4-28.17-12.46 10.89-26.2 19.78-40.01 27.01v-106.53c40.41 0 60.99 20.24 60.99 20.24s36.82 17.19 36.82 38.88z" fill="#1a0099"/><g><path d="m379.008 157.526-29.594-12.013.039-2.805c0-51.061-41.987-92.602-93.047-92.602-51.061 0-93.926 41.541-93.926 92.602l.104 2.805-28.779 12.013v-14.818c0-67.603 54.999-122.602 122.602-122.602s122.602 54.999 122.602 122.602v14.818z" fill="#fff"/></g><g><path d="m379.01 142.71v14.82l-29.6-12.02.044-2.8c0-51.06-41.984-92.6-93.044-92.6-.14 0-.27 0-.41.01v-30.01h.41c67.6 0 122.6 54.99 122.6 122.6z" fill="#d3d3d3"/></g><path d="m251.804 295.634h-18.933c-9.544 0-17.282-7.737-17.282-17.282v-8.998c0-9.544 7.737-17.282 17.282-17.282h18.933c9.545 0 17.282 7.737 17.282 17.282v8.998c0 9.545-7.737 17.282-17.282 17.282z" fill="#474747"/><g><g><g><path d="m176.009 229.274h-16.902c-20.486 0-37.965-14.819-41.316-35.029-4.232-25.518 15.451-48.732 41.317-48.732h3.477z" fill="#ff7300"/></g><g><path d="m336.597 229.274h16.296c20.486 0 37.965-14.819 41.316-35.029 4.232-25.518-15.451-48.732-41.316-48.732h-3.478z" fill="#ed4a0a"/></g></g></g><path d="m269.09 269.35v9c0 8.1-5.57 14.89-13.09 16.77v-42.54c7.52 1.88 13.09 8.68 13.09 16.77z" fill="#2b2b2b"/><path d="m388.76 354.9v120.03c-38.71 23.52-84.15 37.07-132.76 37.07s-94.05-13.55-132.76-37.07v-120.03h46.65v24.32c0 22.11 17.92 40.03 40.03 40.03h92.16c22.11 0 40.03-17.92 40.03-40.03v-24.32z" fill="#ff7be6"/><path d="m388.76 354.9v120.03c-38.71 23.52-84.15 37.07-132.76 37.07v-92.75h46.08c22.11 0 40.03-17.92 40.03-40.03v-24.32z" fill="#f246d9"/></g></g></svg>