<?xml version="1.0" encoding="iso-8859-1"?>
<!-- Generator: Adobe Illustrator 19.0.0, SVG Export Plug-In . SVG Version: 6.00 Build 0)  -->
<svg version="1.1" id="Capa_1" xmlns="http://www.w3.org/2000/svg" xmlns:xlink="http://www.w3.org/1999/xlink" x="0px" y="0px"
	 viewBox="0 0 512 512" style="enable-background:new 0 0 512 512;" xml:space="preserve">
<path style="fill:#303C42;" d="M256,0C114.833,0,0,114.844,0,256s114.833,256,256,256s256-114.844,256-256S397.167,0,256,0z"/>
<path style="fill:#FFFFFF;" d="M256,490.667C126.604,490.667,21.333,385.396,21.333,256S126.604,21.333,256,21.333
	S490.667,126.604,490.667,256S385.396,490.667,256,490.667z"/>
<g>
	<path style="fill:#303C42;" d="M149.333,192c-17.646,0-32,14.354-32,32c0,5.896,4.771,10.667,10.667,10.667
		c5.896,0,10.667-4.771,10.667-10.667c0-5.885,4.792-10.667,10.667-10.667c5.896,0,10.667-4.771,10.667-10.667
		S155.229,192,149.333,192z"/>
	<path style="fill:#303C42;" d="M106.667,117.333c-17.646,0-32,14.354-32,32c0,5.896,4.771,10.667,10.667,10.667
		S96,155.229,96,149.333c0-5.885,4.792-10.667,10.667-10.667c5.896,0,10.667-4.771,10.667-10.667
		C117.333,122.104,112.563,117.333,106.667,117.333z"/>
	<path style="fill:#303C42;" d="M96,181.333c-17.646,0-32,14.354-32,32C64,219.229,68.771,224,74.667,224
		c5.896,0,10.667-4.771,10.667-10.667c0-5.885,4.792-10.667,10.667-10.667c5.896,0,10.667-4.771,10.667-10.667
		C106.667,186.104,101.896,181.333,96,181.333z"/>
	<path style="fill:#303C42;" d="M74.667,266.667c5.896,0,10.667-4.771,10.667-10.667c0-5.896-4.771-10.667-10.667-10.667
		c-17.646,0-32,14.354-32,32c0,5.896,4.771,10.667,10.667,10.667S64,283.229,64,277.333C64,271.448,68.792,266.667,74.667,266.667z"
		/>
	<path style="fill:#303C42;" d="M96,298.667c-17.646,0-32,14.354-32,32c0,5.896,4.771,10.667,10.667,10.667
		c5.896,0,10.667-4.771,10.667-10.667C85.333,324.781,90.125,320,96,320c5.896,0,10.667-4.771,10.667-10.667
		S101.896,298.667,96,298.667z"/>
	<path style="fill:#303C42;" d="M181.333,117.333c-17.646,0-32,14.354-32,32c0,5.896,4.771,10.667,10.667,10.667
		c5.896,0,10.667-4.771,10.667-10.667c0-5.885,4.792-10.667,10.667-10.667c5.896,0,10.667-4.771,10.667-10.667
		C192,122.104,187.229,117.333,181.333,117.333z"/>
	<path style="fill:#303C42;" d="M138.667,106.667c5.896,0,10.667-4.771,10.667-10.667c0-5.885,4.792-10.667,10.667-10.667
		c5.896,0,10.667-4.771,10.667-10.667C170.667,68.771,165.896,64,160,64c-17.646,0-32,14.354-32,32
		C128,101.896,132.771,106.667,138.667,106.667z"/>
	<path style="fill:#303C42;" d="M256,106.667c-17.646,0-32,14.354-32,32c0,5.896,4.771,10.667,10.667,10.667
		s10.667-4.771,10.667-10.667c0-5.885,4.792-10.667,10.667-10.667c5.896,0,10.667-4.771,10.667-10.667S261.896,106.667,256,106.667z
		"/>
	<path style="fill:#303C42;" d="M234.667,53.333c0-5.896-4.771-10.667-10.667-10.667c-17.646,0-32,14.354-32,32
		c0,5.896,4.771,10.667,10.667,10.667s10.667-4.771,10.667-10.667C213.333,68.781,218.125,64,224,64
		C229.896,64,234.667,59.229,234.667,53.333z"/>
	<path style="fill:#303C42;" d="M288,53.333c-17.646,0-32,14.354-32,32C256,91.229,260.771,96,266.667,96
		c5.896,0,10.667-4.771,10.667-10.667c0-5.885,4.792-10.667,10.667-10.667c5.896,0,10.667-4.771,10.667-10.667
		S293.896,53.333,288,53.333z"/>
	<path style="fill:#303C42;" d="M352,53.333c-17.646,0-32,14.354-32,32C320,91.229,324.771,96,330.667,96
		c5.896,0,10.667-4.771,10.667-10.667c0-5.885,4.792-10.667,10.667-10.667c5.896,0,10.667-4.771,10.667-10.667
		S357.896,53.333,352,53.333z"/>
	<path style="fill:#303C42;" d="M394.667,85.333c-17.646,0-32,14.354-32,32c0,5.896,4.771,10.667,10.667,10.667
		S384,123.229,384,117.333c0-5.885,4.792-10.667,10.667-10.667c5.896,0,10.667-4.771,10.667-10.667
		C405.333,90.104,400.563,85.333,394.667,85.333z"/>
</g>
<path style="opacity:0.1;enable-background:new    ;" d="M435.983,105.684C443.71,129.526,448,154.915,448,181.333
	c0,135.493-109.84,245.333-245.333,245.333c-55.301,0-106.152-18.517-147.182-49.388C96.667,445.107,171.017,490.667,256,490.667
	c129.396,0,234.667-105.271,234.667-234.667C490.667,198.84,470.073,146.434,435.983,105.684z"/>
<linearGradient id="SVGID_1_" gradientUnits="userSpaceOnUse" x1="-45.5785" y1="639.5551" x2="-23.8277" y2="629.4137" gradientTransform="matrix(21.3333 0 0 -21.3333 996.3334 13791.667)">
	<stop  offset="0" style="stop-color:#FFFFFF;stop-opacity:0.2"/>
	<stop  offset="1" style="stop-color:#FFFFFF;stop-opacity:0"/>
</linearGradient>
<path style="fill:url(#SVGID_1_);" d="M256,0C114.833,0,0,114.844,0,256s114.833,256,256,256s256-114.844,256-256S397.167,0,256,0z"
	/>
<g>
</g>
<g>
</g>
<g>
</g>
<g>
</g>
<g>
</g>
<g>
</g>
<g>
</g>
<g>
</g>
<g>
</g>
<g>
</g>
<g>
</g>
<g>
</g>
<g>
</g>
<g>
</g>
<g>
</g>
</svg>
