<svg id="Layer_1" height="512" viewBox="0 0 512 512" width="512" xmlns="http://www.w3.org/2000/svg" data-name="Layer 1"><path d="m483.74 345.86.35 39.3c0 27.23-101.92 49.31-227 49.31s-227.52-22.08-227.52-49.31l.45-41.3h.04c2.06 26.84 102.9 48.46 227.01 48.46 121.01 0 219.9-20.55 226.67-46.46z" fill="#8daf38"/><path d="m257.285 293.706c-34.12 0-66.285 1.644-95.285 4.564l-20 2.067c-67 8.59-111.75 24.492-111.75 42.572 0 .28-.105.615-.075.895 2.06 26.84 102.843 48.488 226.952 48.488 121.011 0 219.872-20.536 226.642-46.446a11.106 11.106 0 0 0 .463-2.833c0-27.23-101.557-49.307-226.947-49.307z" fill="#b5d866"/><path d="m141.56 113.08-.01 99.11h-.04l-113.62-49.56 113.62-49.55z" fill="#fb6771"/><path d="m387.47 343c0 11.83-55.07 21.43-123.03 21.43-42.96 0-80.84-3.83-102.9-9.64l.03-.1v-23.5c22.09-5.72 60.22-9.63 102.81-9.63 67.96 0 123.09 9.61 123.09 21.44z" fill="#966f59"/><path d="m70.175 343.8c-.03-.28.075-.615.075-.895 0-18.08 44.75-33.982 111.75-42.572l20-2.067c23.264-2.342 48.568-3.861 75.281-4.371q-9.885-.187-20-.193c-34.12 0-66.285 1.644-95.285 4.564l-20 2.067c-67 8.59-111.75 24.492-111.75 42.572 0 .28-.105.615-.075.895 2.06 26.84 102.843 48.488 226.952 48.488q10.122 0 20.018-.192c-114.766-2.172-205.018-22.908-206.966-48.296z" fill="#a0ba58"/><path d="m161.57 87.53v267.16l-.03.1c-11.32-2.98-18.47-6.48-20-10.25l.02-257.01a10.005 10.005 0 0 1 20.01 0z" fill="#6d7486"/><g fill="#f4f8fc"><path d="m345.407 380.732a6 6 0 0 1 -.655-11.964c29.549-3.284 54.362-8.44 69.867-14.52a6 6 0 1 1 4.381 11.171c-16.7 6.547-41.913 11.83-72.923 15.276a6.071 6.071 0 0 1 -.67.037z"/><path d="m432.545 357.036a6 6 0 0 1 -4.045-10.436 12.8 12.8 0 0 0 1.267-1.318 6 6 0 0 1 9.275 7.614 24.644 24.644 0 0 1 -2.459 2.573 5.975 5.975 0 0 1 -4.038 1.567z"/></g></svg>