<svg id="Capa_1" enable-background="new 0 0 510 510" height="512" viewBox="0 0 510 510" width="512" xmlns="http://www.w3.org/2000/svg"><g><path d="m172.5 80-82.5 10v420l165-66.919 10-158.504-10-194.577z" fill="#ff3d7d"/><path d="m337.5 80-82.5 10v353.081l165 66.919c0-12.243 0-409.913 0-420z" fill="#c1126b"/><path d="m222.601 261.088c-19.631 2.853-60.88 8.847-72.446 10.527 6.01 5.858 46.372 45.201 52.422 51.1-3.354 19.552-10.399 60.635-12.375 72.154 7.674-4.034 57.161-30.051 64.798-34.066l10-62.681-10-102.681c-8.779 17.789-27.227 55.166-32.399 65.647z" fill="#fee05b"/><path d="m307.423 322.715c14.205-13.847 44.055-42.941 52.424-51.1-19.631-2.853-60.881-8.847-72.447-10.527-3.346-6.779-29.001-58.762-32.399-65.646v165.361c17.559 9.232 54.454 28.628 64.799 34.066-1.263-7.355-11.094-64.676-12.377-72.154z" fill="#fec258"/><path d="m150 135v30h105l10-15-10-15c-28.278 0-88.527 0-105 0z" fill="#a2e3f1"/><path d="m360 135c-28.278 0-88.527 0-105 0v30h105c0-10.492 0-19.508 0-30z" fill="#5ecbf1"/><path d="m45 60h-45v-30h45l10 15z" fill="#5ecbf1"/><path d="m465 60h45c0-10.492 0-19.508 0-30-14.981 0-30.019 0-45 0l-10 15z" fill="#4793ff"/><path d="m45 0v90h210l10-45-10-45c-11.664 0-198.336 0-210 0z" fill="#ff6b6b"/><path d="m465 0c-11.664 0-198.336 0-210 0v90h210c0-10.889 0-79.039 0-90z" fill="#ff3d7d"/></g></svg>