<svg height="512" viewBox="0 0 60 56" width="512" xmlns="http://www.w3.org/2000/svg"><g id="Page-1" fill="none" fill-rule="evenodd"><g id="009---Script" fill-rule="nonzero"><path id="Shape" d="m59 5v6h-58v-6c0-2.209139 1.790861-4 4-4h50c2.209139 0 4 1.790861 4 4z" fill="#607d8b"/><path id="Shape" d="m55 1h-3c2.209139 0 4 1.790861 4 4v6h3v-6c0-2.209139-1.790861-4-4-4z" fill="#37474f"/><path id="Shape" d="m59 11v40c0 2.209139-1.790861 4-4 4h-50c-2.209139 0-4-1.790861-4-4v-40z" fill="#02a9f4"/><path id="Shape" d="m56 11v40c0 2.209139-1.790861 4-4 4h3c2.209139 0 4-1.790861 4-4v-40z" fill="#0377bc"/><circle id="Oval" cx="6" cy="6" fill="#f44335" r="1"/><circle id="Oval" cx="10" cy="6" fill="#ffdc00" r="1"/><circle id="Oval" cx="14" cy="6" fill="#60a917" r="1"/><g fill="#f5f5f5"><path id="Shape" d="m39 7h-1c-.5522847 0-1-.44771525-1-1s.4477153-1 1-1h1c.5522847 0 1 .44771525 1 1s-.4477153 1-1 1z"/><path id="Shape" d="m54 7h-11c-.5522847 0-1-.44771525-1-1s.4477153-1 1-1h11c.5522847 0 1 .44771525 1 1s-.4477153 1-1 1z"/><path id="Shape" d="m20 45c-.251612.0002346-.4940652-.09439-.679-.265l-11.408-10.53c-.61530544-.567924-.96525683-1.3671599-.96525683-2.2045s.34995139-1.636576.96525683-2.2045l5.987-5.531c.4059293-.3750013 1.0389987-.3499293 1.414.056s.3499293 1.0389987-.056 1.414l-5.991 5.53c-.20521118.1893156-.32193289.4558011-.32193289.735s.11672171.5456844.32193289.735l11.408 10.53c.3022669.2788495.4029997.7143192.2538922 1.0975806-.1491074.3832613-.5176493.6361602-.9288922.6374194z"/><path id="Shape" d="m18 22.846c-.4119729.0003845-.7820209-.2519194-.9321603-.6355597-.1501394-.3836404-.0496401-.8200951.2531603-1.0994403l2-1.846c.4059293-.3750013 1.0389987-.3499293 1.414.056s.3499293 1.0389987-.056 1.414l-2 1.846c-.1849348.17061-.427388.2652346-.679.265z"/><path id="Shape" d="m40 45c-.4119729.0003845-.7820209-.2519194-.9321603-.6355597-.1501394-.3836404-.0496401-.8200951.2531603-1.0994403l11.408-10.53c.2052112-.1893156.3219329-.4558011.3219329-.735s-.1167217-.5456844-.3219329-.735l-11.408-10.53c-.4059293-.3750013-.4310013-1.0080707-.056-1.414s1.0080707-.4310013 1.414-.056l11.408 10.535c.6153054.567924.9652568 1.3671599.9652568 2.2045s-.3499514 1.636576-.9652568 2.2045l-11.408 10.526c-.1849348.17061-.427388.2652346-.679.265z"/><path id="Shape" d="m24 40c-.3905653-.0000304-.745371-.227441-.9085088-.5823033-.1631378-.3548624-.1047492-.7722273.1495088-1.0686967l12-14c.36484-.3948857.9766102-.4306334 1.384959-.0809275.4083488.3497058.4671163.9596952.133041 1.3809275l-12 14c-.1895879.2222448-.4668767.3504772-.759.351z"/></g><path id="Shape" d="m5 56h50c2.7600532-.0033061 4.9966939-2.2399468 5-5v-46c-.0033061-2.76005315-2.2399468-4.99669388-5-5h-50c-2.76005315.00330612-4.99669388 2.23994685-5 5v46c.00330612 2.7600532 2.23994685 4.9966939 5 5zm0-54h50c1.6568542 0 3 1.34314575 3 3v5h-45c-.5522847 0-1 .4477153-1 1s.4477153 1 1 1h45v39c0 1.6568542-1.3431458 3-3 3h-50c-1.65685425 0-3-1.3431458-3-3v-39h5c.55228475 0 1-.4477153 1-1s-.44771525-1-1-1h-5v-5c0-1.65685425 1.34314575-3 3-3z" fill="#000"/><path id="Shape" d="m47 52h3c.5522847 0 1-.4477153 1-1s-.4477153-1-1-1h-3c-.5522847 0-1 .4477153-1 1s.4477153 1 1 1z" fill="#000"/><path id="Shape" d="m54 52h1c.5522847 0 1-.4477153 1-1s-.4477153-1-1-1h-1c-.5522847 0-1 .4477153-1 1s.4477153 1 1 1z" fill="#000"/></g></g></svg>