<svg height="512pt" viewBox="-31 0 512 512" width="512pt" xmlns="http://www.w3.org/2000/svg"><path d="m390 60h-125l50 377 75 75zm0 0" fill="#ff1a69"/><path d="m175 60 50 287 90 90v-377zm0 0" fill="#97e4fd"/><path d="m60 60v452l75-75 50-377zm0 0" fill="#1c81b9"/><path d="m135 60v377l90-90v-287zm0 0" fill="#bcf7fc"/><path d="m60 0 45 45-45 45h-60v-90zm0 0" fill="#ffbe46"/><path d="m390 0-45 45 45 45h60v-90zm0 0" fill="#ffa725"/><path d="m225 0-40 45 40 45h165v-90zm0 0" fill="#ff4377"/><path d="m60 0h165v90h-165zm0 0" fill="#2196dc"/></svg>