<svg id="icons" enable-background="new 0 0 64 64" height="512" viewBox="0 0 64 64" width="512" xmlns="http://www.w3.org/2000/svg"><g><g><path d="m32 48.01c8 0 15.07-3.9 19.43-9.91 4.851.69 8.58 4.86 8.58 9.9 0 5.52-4.479 10-10 10h-23.01c-14.36 0-26-11.641-26-26 0-14.36 11.64-26 26-26h20c8.84 0 16 7.16 16 16 0 7.06-4.58 13.061-10.93 15.18 2.491-3.78 3.93-8.31 3.93-13.18-3.25 0-6.35.65-9.17 1.82v-.01c0-3.05-.59-6.16-1.84-9.17-3.01 1.24-5.62 3.03-7.78 5.19-1.17-2.82-2.91-5.47-5.21-7.77-2.3 2.3-4.03 4.95-5.21 7.77-2.16-2.17-4.78-3.95-7.78-5.19-1.239 3.01-1.83 6.12-1.83 9.17v.01c-2.83-1.17-5.93-1.82-9.18-1.82 0 13.27 10.74 24.01 24 24.01z" fill="#a0d468"/></g><g><path d="m37.21 21.83c-2.25 2.25-4.01 4.9-5.21 7.78-1.2-2.89-2.96-5.54-5.21-7.78 1.18-2.82 2.91-5.47 5.21-7.77 2.3 2.3 4.04 4.95 5.21 7.77z" fill="#ccd1d9"/></g><g><path d="m30.16 38.76c1.18 2.85 1.84 5.971 1.84 9.25-13.26 0-24-10.74-24-24.01 3.25 0 6.35.65 9.18 1.82 5.86 2.42 10.54 7.09 12.98 12.94z" fill="#fff"/></g><g><path d="m46.83 25.82c-8.71 3.59-14.83 12.17-14.83 22.19 0-3.279-.66-6.4-1.84-9.25.01-3.16.64-6.27 1.84-9.15s2.96-5.53 5.21-7.78c2.16-2.16 4.771-3.95 7.78-5.19 1.25 3.01 1.84 6.12 1.84 9.17z" fill="#e6e9ed"/></g><g><path d="m32 29.61c-1.2 2.88-1.83 5.99-1.84 9.15-2.44-5.85-7.12-10.52-12.98-12.94v-.01c0-3.05.591-6.16 1.83-9.17 3 1.24 5.62 3.02 7.78 5.19 2.25 2.24 4.01 4.89 5.21 7.78z" fill="#e6e9ed"/></g><g><path d="m56 24c0 4.87-1.439 9.4-3.93 13.18-.2.311-.42.62-.641.92-4.359 6.009-11.429 9.91-19.429 9.91 0-10.02 6.12-18.6 14.83-22.19 2.82-1.17 5.92-1.82 9.17-1.82z" fill="#fff"/></g></g><g><g><path d="m27 59.001c-14.888 0-27-12.113-27-27.002 0-14.888 12.112-27.001 27-27.001.553 0 1 .448 1 1s-.447 1-1 1c-13.785 0-25 11.215-25 25.001s11.215 25.002 25 25.002c.553 0 1 .447 1 1s-.447 1-1 1z"/></g><g><path d="m50.006 59.002c-.553 0-1-.447-1-1s.447-1 1-1c4.963 0 9-4.037 9-9 0-4.454-3.32-8.284-7.723-8.909-.547-.078-.927-.584-.85-1.131.078-.546.584-.926 1.131-.85 5.383.764 9.441 5.445 9.441 10.89.001 6.065-4.934 11-10.999 11z"/></g><g><path d="m52.068 38.182c-.419 0-.809-.265-.948-.683-.175-.524.107-1.091.631-1.266 6.131-2.049 10.249-7.77 10.249-14.234 0-8.271-6.729-15-15-15-.553 0-1-.448-1-1s.447-1 1-1c9.374 0 17 7.626 17 17 0 7.326-4.668 13.809-11.614 16.131-.106.035-.212.052-.318.052z"/></g><g><path d="m47 6.998h-20c-.553 0-1-.448-1-1s.447-1 1-1h20c.553 0 1 .448 1 1s-.447 1-1 1z"/></g><g><path d="m50.006 59.002h-23.006c-.553 0-1-.447-1-1s.447-1 1-1h23.006c.553 0 1 .447 1 1s-.447 1-1 1z"/></g><g><g><path d="m32 49.006c-.553 0-1-.447-1-1 0-13.788 11.215-25.005 25-25.005.553 0 1 .448 1 1s-.447 1-1 1c-12.683 0-23 10.32-23 23.005 0 .553-.447 1-1 1z"/></g><g><path d="m32 49.006c-.553 0-1-.447-1-1s.447-1 1-1c12.683 0 23-10.32 23-23.005 0-.552.447-1 1-1s1 .448 1 1c0 13.788-11.215 25.005-25 25.005z"/></g></g><g><g><path d="m32 49.006c-.553 0-1-.447-1-1 0-12.685-10.317-23.005-23-23.005-.553 0-1-.448-1-1s.447-1 1-1c13.785 0 25 11.217 25 25.005 0 .553-.447 1-1 1z"/></g><g><path d="m32 49.006c-13.785 0-25-11.217-25-25.005 0-.552.447-1 1-1s1 .448 1 1c0 12.685 10.317 23.005 23 23.005.553 0 1 .447 1 1s-.447 1-1 1z"/></g></g><g><g><path d="m30.158 39.763c-.001 0-.002 0-.002 0-.553-.001-.999-.45-.998-1.002.023-10.121 6.087-19.165 15.447-23.041.508-.209 1.096.031 1.307.541s-.031 1.095-.541 1.307c-8.612 3.567-14.191 11.887-14.213 21.197-.001.551-.449.998-1 .998z"/></g><g><path d="m46.824 26.813c-.552 0-1-.447-1-1-.002-3.018-.594-5.975-1.76-8.788-.211-.51.03-1.095.541-1.307.508-.209 1.096.03 1.307.541 1.267 3.056 1.91 6.27 1.912 9.552 0 .554-.447 1.002-1 1.002z"/></g></g><g><g><path d="m26.791 22.832c-.128 0-.258-.025-.383-.077-.511-.212-.753-.797-.541-1.307 1.257-3.031 3.083-5.754 5.426-8.096.391-.39 1.023-.39 1.414 0 .391.391.391 1.024 0 1.415-2.156 2.155-3.836 4.66-4.992 7.447-.16.385-.532.618-.924.618z"/></g><g><path d="m37.205 22.833c-.392 0-.764-.232-.924-.618-1.155-2.786-2.834-5.293-4.988-7.449-.391-.391-.391-1.024 0-1.415.391-.39 1.023-.39 1.414 0 2.342 2.343 4.165 5.067 5.422 8.098.212.51-.03 1.095-.541 1.307-.125.053-.255.077-.383.077z"/></g></g><g><g><path d="m17.174 26.813c-.553 0-1-.448-1-1 .002-3.281.646-6.495 1.912-9.552.212-.51.8-.75 1.307-.541.51.211.752.796.541 1.307-1.166 2.814-1.758 5.771-1.76 8.788 0 .551-.448.998-1 .998z"/></g><g><path d="m32.004 30.633c-.392 0-.765-.233-.924-.618-2.35-5.673-6.771-10.094-12.453-12.448-.51-.211-.752-.796-.541-1.307.212-.512.8-.75 1.307-.541 6.175 2.559 10.981 7.364 13.535 13.53.211.51-.031 1.095-.541 1.307-.125.052-.255.077-.383.077z"/></g></g></g></svg>